<svg xmlns="http://www.w3.org/2000/svg" xmlns:xlink="http://www.w3.org/1999/xlink" width="460.76000000000005" height="50.800000000000004" style="background-color: #ff6600;"><path stroke="none" fill="white" d="M28.84 38.64C29 38.64 31.20 38.40 33.92 38.40C36.68 38.40 38.88 38.64 39.08 38.64C39.56 38.64 39.88 38.28 39.88 37.76C39.88 36.60 39.08 36.76 37.32 36.60C35.96 36.44 35.92 35.64 35.92 34.64L35.92 34.36C35.92 32.40 35.88 30.44 35.72 14.92C35.72 14.20 36.04 13.92 36.68 13.76C38.84 13.08 39.80 13.36 39.80 12.28C39.80 11.44 39.48 11.40 39.20 11.40L33.40 11.40C33.04 11.40 32.84 11.48 32.68 11.76C32.64 11.76 32.68 11.76 21.84 32.04C21.72 32.32 21.56 32.48 21.28 32.48C20.92 32.48 20.68 32.16 20.60 32L15.92 24.56L8.36 11.92C8.12 11.52 7.92 11.40 7.36 11.40L1.60 11.40C1.32 11.40 0.88 11.44 0.88 12.28C0.88 12.96 1.40 12.96 1.68 13.00C4 13.04 4.92 14.80 5.52 15.44C5.72 15.68 5.96 15.92 5.96 16.44C5.96 18.24 5.56 27.20 4.96 34.32C4.84 35.44 5 36.28 3.68 36.44C1.68 36.68 0.72 36.56 0.72 37.76C0.72 38.48 1.16 38.64 1.44 38.64C1.60 38.64 3.68 38.40 6.24 38.40C8.80 38.40 10.88 38.64 11.04 38.64C11.60 38.64 11.76 38.08 11.76 37.72C11.76 35.80 8.40 37.24 8 35.92C7.88 35.52 7.76 29.48 7.76 27.80C7.76 25 7.84 22.28 8 19.48C8 19.40 8.04 19.28 8.16 19.28C8.20 19.28 8.24 19.28 8.28 19.32C8.60 19.52 14.36 28.68 18.68 37.56C18.96 38.12 19.32 39 20.08 39C20.24 39 20.60 38.96 20.96 38.52C21.68 37.64 27.84 25.48 31.40 19.80C31.52 19.60 31.68 19.32 31.96 19.32C32.08 19.32 32.20 19.36 32.24 19.56C32.28 19.68 32.36 23.20 32.36 25.96L32.36 34.48C32.36 34.72 32.36 35 32.32 35.24C31.88 37.60 28.08 35.88 28.08 37.68C28.08 38.04 28.24 38.64 28.84 38.64ZM41.08 24.60C41.08 25.52 41.92 26.04 42.68 26.04C43.20 26.04 43.44 25.76 43.56 25.60C43.64 25.44 44.72 22.92 47 22.92C48.04 22.92 48.84 23.48 49.32 24C50.12 24.92 50.28 25.92 50.28 27.20L50.28 28.64C50.28 28.92 50.24 29.12 49.96 29.20C49.88 29.24 45.08 29.40 42.92 31.12C41.96 31.88 41.24 33.16 41.24 34.68L41.24 34.72C41.24 37.16 43.04 39.20 45.80 39.20C47.28 39.20 48.60 38.68 49.52 38.08C50.52 37.40 50.40 37.20 50.60 37.20C50.64 37.20 50.64 37.24 50.68 37.24C50.76 37.28 51.72 38.88 53.52 38.88C55.60 38.88 56.60 36.64 56.60 35.72C56.60 35.36 56.40 35.20 56.24 35.20C55.64 35.20 55.72 36.52 54.48 36.52C54.08 36.52 53.12 36.32 53.12 34.76L53.12 26.88C53.12 26.40 53.08 25.92 53.04 25.44C52.64 21.52 48.76 21.04 47.24 21.04C43.92 21.04 41.08 23.16 41.08 24.60ZM46.76 37C46.24 37 45.52 36.92 45.04 36.48C44.40 35.92 44.20 34.92 44.20 34.28C44.20 33.28 44.64 32.56 45.16 32.12C46.48 30.88 49.20 30.68 49.92 30.68C50.28 30.68 50.32 30.88 50.32 31.84L50.32 33.48L50.32 34.44C50.32 34.80 50.28 35.08 50.08 35.36C49.88 35.64 48.72 37 46.76 37ZM65.80 37.92L65.80 37.96C65.80 38.56 66.12 38.64 66.32 38.64C66.44 38.64 68.12 38.40 70.16 38.40C72.24 38.40 73.88 38.64 74 38.64C74.48 38.64 74.64 38.28 74.64 37.80C74.64 37.24 74.28 37.16 74 37.12C72.08 36.88 70.96 35.56 69.92 34.32C65.28 28.76 65.28 28.84 65.28 28.64C65.28 28.52 65.40 28.44 65.56 28.28C68.16 25.60 69.56 24.08 71.36 23.60C72.88 23.20 73.68 23.60 73.68 22.56C73.68 22.08 73.52 21.80 73.08 21.80C72.64 21.80 71.32 21.92 68.68 21.92L66.36 21.92C65.92 21.92 65.52 22.04 65.52 22.44L65.52 22.84C65.52 23.40 66.56 23.36 66.56 24.52C66.56 25.48 66.16 25.60 62.60 29.24C62.56 29.32 62.44 29.40 62.36 29.40C62.24 29.40 62.24 29.32 62.24 29.24L62.24 10.36C62.24 10.08 62.20 9.68 61.80 9.68C61.64 9.68 61.64 9.68 57.84 11.36C57.60 11.44 57.04 11.60 57.04 12.04C57.04 12.04 57.04 12.20 57.20 12.36C57.24 12.40 58.40 13.20 59.04 13.64C59.40 13.88 59.52 14.08 59.52 14.60L59.52 36.16C59.40 37.56 57.48 36.48 57.48 37.84C57.48 38.12 57.64 38.56 58.16 38.56C58.48 38.56 59.40 38.40 61.28 38.40C63.16 38.40 64.08 38.56 64.36 38.56C64.60 38.56 64.92 38.44 64.92 37.88C64.92 37.24 64.44 37.12 64.08 37.04C62.56 36.84 62.24 36.88 62.24 36.08L62.24 31.96C62.24 31.80 62.24 31.64 62.28 31.52C62.32 31.36 63.16 30.36 63.40 30.36C63.48 30.36 63.56 30.40 63.56 30.44C63.60 30.48 67.68 35.44 67.68 36.32C67.68 37.52 65.80 36.40 65.80 37.92ZM75.88 30.16C75.88 37 80.32 39.16 83.60 39.16C86.44 39.16 89.04 37.72 90.68 35.60C90.88 35.36 90.96 35.12 90.96 34.96C90.96 34.60 90.68 34.36 90.32 34.36C89.92 34.36 89.60 34.72 89.40 34.92C88.16 36.12 86.40 36.88 84.64 36.88C79.60 36.88 78.72 31.56 78.72 31.08C78.72 30.72 78.96 30.76 87.24 27.92C88.40 27.52 90.48 27.12 90.48 25.92L90.48 25.88C90.48 25.52 90.32 25.20 90.16 25C88.68 22.96 86.04 21.16 83.28 21.16C79.28 21.16 75.88 24.56 75.88 30.16ZM86.60 26C86.60 26.16 86.48 26.36 86.24 26.48C86.16 26.52 78.88 29.36 78.76 29.36C78.68 29.36 78.56 29.32 78.56 29.08C78.56 25.52 80.08 23.36 82.40 23.36C84.64 23.36 86.60 25.52 86.60 26ZM102.60 26.04C102.60 28 103.80 30 107.04 30.92C108.32 31.28 111.84 31.68 111.84 34.32C111.84 35.92 110.40 37 108.60 37C106.28 37 104.44 35.48 104.04 34.64C103.48 33.52 104.12 32.16 103.12 32.16C102.52 32.16 102.40 32.36 102.40 33.40C102.40 33.96 102.44 34.72 102.44 35.80C102.44 36.40 102.52 36.72 102.92 37.16C104.08 38.52 106.60 39.16 108.44 39.16C112.40 39.16 114.52 36.32 114.52 33.76C114.52 33.12 114.36 31.80 113.32 30.60C111.84 28.88 109.96 28.76 107.92 28.20C104.96 27.36 104.76 25.88 104.76 25.32C104.76 24.04 105.92 23.20 107.28 23.20C108.60 23.20 110.04 24.04 110.56 24.76C111.12 25.56 111 26.72 111.84 26.72C112.16 26.72 112.76 26.60 112.76 26.08C112.76 25.92 112.24 23.28 112 21.88C111.96 21.68 111.84 21.12 111.36 21.12C110.88 21.12 110.72 21.52 110.36 21.52C110.16 21.52 109.56 21.32 108.36 21.32C104.76 21.32 102.60 23.64 102.60 26.04ZM115.72 30.24C115.72 35.16 119.12 39.16 124.20 39.16C128.68 39.16 132.72 35.96 132.72 30.24C132.72 24.88 129.12 21.12 124.36 21.12C119.88 21.12 115.72 24.68 115.72 30.24ZM124.32 37.20C121.04 37.20 118.84 34.20 118.84 30.04C118.84 24.68 122 23 124.08 23C127.12 23 130 26.12 130 30.40C130 33.96 127.72 37.20 124.32 37.20ZM139.24 23.28C139.12 23.28 139.08 23.16 139.08 23.04L139.08 21.52C139.08 21.32 139.04 21.04 138.72 21.04C138.48 21.04 138.40 21.16 137.96 21.40C134.72 23.48 134.72 23.36 134.72 23.72C134.72 23.96 134.96 24.12 135.08 24.20C136.56 25.32 136.68 25.28 136.68 26.08L136.68 36C136.52 37.60 134.44 36.52 134.44 37.76C134.44 38.16 134.52 38.56 135 38.56C135.28 38.56 136.16 38.40 137.92 38.40C139.76 38.40 141.20 38.64 141.32 38.64C141.68 38.64 141.84 38.36 141.84 38C141.84 37.60 141.84 37.24 141.28 37.16C139.52 36.88 139.16 36.96 139.16 35.80L139.16 26.16C139.16 25.56 139.24 25.32 139.32 25.12C139.56 24.68 140.60 23.56 142.36 23.56C143.48 23.56 144.48 24 145.16 24.52C146.28 25.36 146.44 26.68 146.44 28L146.44 35.40C146.44 36.36 146.28 36.76 145.40 36.92C143.72 37.20 143.24 37.12 143.24 37.76C143.24 38.28 143.32 38.64 143.80 38.64C143.88 38.64 145.52 38.40 147.52 38.40C149.52 38.40 151.12 38.64 151.24 38.64C151.68 38.64 151.76 38.16 151.76 37.80C151.76 37.36 151.52 37.12 151 37.04C149.36 36.84 149.04 36.92 149.04 36.16L149.04 36.12C149.04 36 149.08 35.92 149.08 35.80L149.08 28.08C149.08 26.36 148.84 25.44 148.84 25.40C148.84 24.80 150.72 23.56 152.48 23.56C153.72 23.56 154.56 24.12 154.96 24.44C156.48 25.76 156.60 28.20 156.60 30.28L156.60 35.84C156.60 36.40 156.60 36.80 155.80 36.92C154.20 37.24 153.92 37.16 153.92 37.96C153.92 38.48 154.32 38.64 154.56 38.64C154.88 38.64 155.92 38.40 157.96 38.40C159.96 38.40 161 38.64 161.32 38.64C161.84 38.64 161.92 38.20 161.92 37.84C161.92 37.56 161.88 37.20 161.36 37.12C159.84 36.80 159.44 36.92 159.44 35.64L159.44 30.56C159.44 28.96 159.44 27.40 159 25.88C158.08 22.60 155.64 21.52 153.60 21.52C152.84 21.52 151.44 21.68 149.72 22.68C148.20 23.56 148.36 23.76 148.04 23.76C147.96 23.76 147.92 23.76 147.88 23.72C147.80 23.68 146.16 21.52 143.56 21.52C141.16 21.52 139.44 23.28 139.24 23.28ZM163.36 30.16C163.36 37 167.80 39.16 171.08 39.16C173.92 39.16 176.52 37.72 178.16 35.60C178.36 35.36 178.44 35.12 178.44 34.96C178.44 34.60 178.16 34.36 177.80 34.36C177.40 34.36 177.08 34.72 176.88 34.92C175.64 36.12 173.88 36.88 172.12 36.88C167.08 36.88 166.20 31.56 166.20 31.08C166.20 30.72 166.44 30.76 174.72 27.92C175.88 27.52 177.96 27.12 177.96 25.92L177.96 25.88C177.96 25.52 177.80 25.20 177.64 25C176.16 22.96 173.52 21.16 170.76 21.16C166.76 21.16 163.36 24.56 163.36 30.16ZM174.08 26C174.08 26.16 173.96 26.36 173.72 26.48C173.64 26.52 166.36 29.36 166.24 29.36C166.16 29.36 166.04 29.32 166.04 29.08C166.04 25.52 167.56 23.36 169.88 23.36C172.12 23.36 174.08 25.52 174.08 26ZM180.44 23.80L181.72 23.80C181.96 23.80 182.00 23.96 182.00 24.16C182.00 25.04 181.84 31.24 181.84 33C181.84 33.44 181.84 33.84 181.88 34.28C182.16 38.04 184.32 39.16 185.92 39.16C188.12 39.16 190.08 37.16 191.48 35.56C191.56 35.44 191.76 35.20 191.76 34.88C191.76 34.52 191.48 34.16 191.04 34.16C190.16 34.16 188.60 36.56 186.68 36.56C185.00 36.56 184.64 35 184.64 33.60C184.64 32.64 184.64 31.72 184.68 24.24C184.68 23.96 184.80 23.88 185.08 23.88L189.76 23.88C190.12 23.88 190.32 23.84 190.48 23.68C190.68 23.44 190.84 22.76 190.84 22.52C190.84 21.76 190.16 21.76 189.80 21.76C189.68 21.76 189.60 21.72 189.48 21.72L185.88 21.72C185.40 21.72 185.08 21.60 185.08 20.92C185.08 20.36 185.12 18.68 185.12 18.12C185.12 17.60 184.84 17.48 184.60 17.48C184.16 17.48 183.92 18.00 183.80 18.20C181.64 21.88 179.64 22.60 179.64 23.28C179.64 23.76 180.08 23.80 180.44 23.80ZM203.88 38.08C203.88 38.36 203.96 38.64 204.32 38.64C204.44 38.64 206.00 38.40 207.92 38.40C209.92 38.40 211.44 38.64 211.56 38.64C211.88 38.64 212.08 38.48 212.08 37.76C212.08 37.20 211.72 37.08 211.40 37.04C210.40 36.92 209.92 36.88 209.92 35.76C209.76 28.28 209.56 27.04 208.76 25.16C207.84 23.04 206.04 21.52 203.40 21.52C200.68 21.52 198.92 23 198.68 23C198.60 23 198.48 22.96 198.48 22.72L198.52 10.40C198.52 9.76 198.16 9.64 197.92 9.64L197.88 9.64C197.60 9.64 197.56 9.72 193.28 12.20C193.20 12.24 192.64 12.48 192.64 12.96C192.64 14.00 195.28 13.64 195.48 14.64C195.52 14.88 195.64 21.20 195.64 24.44L195.64 24.60C195.64 28.28 195.56 31.96 195.44 35.60C195.40 36.16 195.40 36.80 194.48 36.96C193.36 37.20 193.00 37.16 193.00 37.84C193.00 38.20 193.00 38.64 193.48 38.64C193.60 38.64 195.20 38.40 197.24 38.40C199.20 38.40 200.80 38.64 200.92 38.64C201.28 38.64 201.36 38.16 201.36 37.80C201.36 36.36 198.68 37.64 198.36 35.92C198.28 35.64 198.28 26.28 198.28 26.04C198.28 25.84 198.28 25.68 198.32 25.52C198.52 24.72 200.08 23.56 201.80 23.56C203.08 23.56 204.24 24.20 205.04 25C206.04 26.08 206.96 27.64 206.96 33.40C206.96 36.44 206.96 36.76 206.16 36.88C204.40 37.12 203.88 36.96 203.88 37.80ZM216.88 13.68C216.88 14.76 217.72 15.56 218.76 15.56C219.80 15.56 220.72 14.72 220.72 13.64C220.72 12.64 219.84 11.80 218.80 11.80C217.76 11.80 216.88 12.64 216.88 13.68ZM216.48 33.56L216.48 35.44C216.48 36.16 216.40 36.72 215.40 36.88C213.60 37.12 213.44 37.04 213.44 37.96C213.44 38.36 213.64 38.64 214.04 38.64C214.16 38.64 215.72 38.40 217.72 38.40C219.68 38.40 221.28 38.64 221.40 38.64C221.84 38.64 221.88 38.08 221.88 37.76C221.88 37.08 221.40 37.12 220.08 36.92C219.20 36.80 219.16 36.68 219.16 31.80L219.16 30.48C219.16 25.60 219.40 21.72 219.40 21.40C219.40 20.92 219.08 20.76 218.84 20.76L218.80 20.76C218.60 20.76 218.56 20.84 214.40 22.84C213.96 23.04 213.32 23.20 213.32 23.68C213.32 24 213.60 24.12 213.80 24.20C216.36 25.24 216.52 25.20 216.52 25.84C216.52 26.60 216.48 28.92 216.48 33.56ZM228.08 23.32C228.08 23.28 228.12 23.16 228.12 23.08L228.12 21.52C228.12 21.20 228.00 20.92 227.64 20.92C227.48 20.92 227.36 21.00 227.24 21.08C223.52 23.08 223.44 23.04 223.44 23.36L223.44 23.40C223.44 23.56 223.56 23.68 223.68 23.80C225.48 25.16 225.48 25.08 225.48 26.04L225.48 35.60C225.48 36.28 225.44 36.80 224.44 36.96C223.20 37.16 222.88 37.12 222.88 37.92C222.88 38.48 223.28 38.64 223.52 38.64C223.64 38.64 225.12 38.40 227.04 38.40C229.00 38.40 230.64 38.68 230.76 38.68C231.12 38.68 231.28 38.36 231.28 37.96C231.28 37.08 230.80 37.16 229.12 36.88C228.28 36.76 228.24 36.20 228.24 35.76L228.24 35.64L228.24 26.16C228.24 26 228.24 25.80 228.28 25.64C228.44 24.92 230.08 23.04 232.40 23.04C233.32 23.04 235.52 23.40 236.40 25.44C236.88 26.64 236.92 29.04 236.92 29.76L236.92 35.96C236.92 36.64 236.80 36.84 236.28 36.92C234.68 37.20 234.20 37.12 234.20 37.84C234.20 38.24 234.28 38.64 234.76 38.64C234.84 38.64 236.28 38.40 238.04 38.40C240.04 38.40 241.04 38.64 241.40 38.64C241.64 38.64 242.00 38.52 242.00 37.84C242.00 37.56 241.96 37.20 241.44 37.12C240.04 36.92 239.52 37 239.52 35.88L239.52 35.80C239.52 30.28 239.56 29.56 239.56 28.88C239.56 28.20 239.56 27.52 239.48 26.84C239.08 21.88 235.60 21.08 233.80 21.08L233.72 21.08C230.28 21.12 228.40 23.48 228.24 23.48L228.20 23.48C228.16 23.48 228.08 23.44 228.08 23.32ZM249.88 22.44C252.44 22.44 254.08 25.28 254.08 28.08C254.08 30.56 252.68 32.52 250.52 32.52C248.04 32.52 246.40 29.84 246.40 26.84C246.40 24.20 247.88 22.44 249.88 22.44ZM245.72 41.92C245.72 41.24 246.00 40.52 246.48 40.04C246.76 39.76 246.88 39.60 247.16 39.60L247.28 39.60C251.44 40.04 253.92 39.68 255.72 40.60C256.16 40.80 257.32 41.52 257.32 42.96C257.32 44.12 256.36 45.88 252.24 45.88C248.56 45.88 245.72 44.32 245.72 41.92ZM243.28 27.32C243.28 28.36 243.52 29.36 244.04 30.24C245.16 32.28 246.48 32.40 246.48 32.80C246.48 32.84 246.48 32.88 246.44 32.92C246.40 32.96 244.16 34.64 244.16 36.68C244.16 38.48 245.64 38.84 245.64 39.08C245.64 39.16 245.60 39.20 245.56 39.24C245.52 39.28 243.48 40.28 243.48 42.72C243.48 44.56 244.76 47.76 251.32 47.76C257.92 47.76 259.64 44.48 259.64 42.28C259.64 40.52 258.52 38.56 256.00 37.84C252.88 36.92 246.20 38 246.20 35.60C246.20 34.72 247.28 33.56 248.00 33.56C248.52 33.56 249.00 33.92 250.32 33.92C254.08 33.92 256.96 30.88 256.96 27.20C256.96 25.68 256.52 24.92 256.52 24.68C256.52 24.56 256.60 24.44 256.68 24.36C257.04 24.08 259.56 23.52 259.56 21.96C259.56 21.16 258.80 20.32 258.04 20.32C257.40 20.32 257.08 20.92 256.88 21.24C256.36 22 255.56 22.52 254.80 22.52C253.92 22.52 252.64 21.08 249.76 21.08C246.04 21.08 243.28 23.96 243.28 27.32ZM280.00 37.32C279.08 37.32 278.16 37.08 277.36 36.68C276.32 36.20 276.32 35.80 276.32 35.44L276.32 26.84C276.32 25.68 276.60 25 277.48 24.36C278.52 23.56 279.60 23.52 280.12 23.52C283.32 23.52 286.32 26.72 286.32 30.60C286.32 34.60 283.24 37.32 280.00 37.32ZM281.44 21.16C281.12 21.16 280.84 21.16 280.52 21.20C277.40 21.64 276.12 23.80 275.92 23.80C275.84 23.80 275.80 23.68 275.80 23.56L275.80 21.20C275.80 20.96 275.72 20.76 275.48 20.76C275.28 20.76 275.20 20.88 274.80 21.08C270.60 23.56 270.52 23.52 270.52 23.76L270.52 23.80C270.52 24.08 270.60 24.04 273.20 25.20C273.68 25.40 273.72 25.80 273.72 26L273.72 26.08L273.72 44.56C273.72 45.24 273.48 45.56 272.84 45.68C271.00 46.08 270.52 46 270.52 46.72C270.52 47.40 270.92 47.52 271.16 47.52C271.36 47.52 273.56 47.20 276.48 47.20C278.72 47.20 279.88 47.36 280.24 47.36C280.60 47.36 280.72 47.08 280.72 46.76C280.72 45.52 279.92 45.76 277.52 45.52C276.68 45.44 276.64 44.88 276.64 44.48L276.64 44.36L276.64 38.88C276.64 38.60 276.68 38.44 276.92 38.44C277.00 38.44 278.12 38.68 279.48 38.68C285.04 38.68 289.00 35.12 289.00 29.80C289.00 25.16 285.88 21.16 281.44 21.16ZM290.64 30.16C290.64 37 295.08 39.16 298.36 39.16C301.20 39.16 303.80 37.72 305.44 35.60C305.64 35.36 305.72 35.12 305.72 34.96C305.72 34.60 305.44 34.36 305.08 34.36C304.68 34.36 304.36 34.72 304.16 34.92C302.92 36.12 301.16 36.88 299.40 36.88C294.36 36.88 293.48 31.56 293.48 31.08C293.48 30.72 293.72 30.76 302.00 27.92C303.16 27.52 305.24 27.12 305.24 25.92L305.24 25.88C305.24 25.52 305.08 25.20 304.92 25C303.44 22.96 300.80 21.16 298.04 21.16C294.04 21.16 290.64 24.56 290.64 30.16ZM301.36 26C301.36 26.16 301.24 26.36 301.00 26.48C300.92 26.52 293.64 29.36 293.52 29.36C293.44 29.36 293.32 29.32 293.32 29.08C293.32 25.52 294.84 23.36 297.16 23.36C299.40 23.36 301.36 25.52 301.36 26ZM306.96 30.24C306.96 35.16 310.36 39.16 315.44 39.16C319.92 39.16 323.96 35.96 323.96 30.24C323.96 24.88 320.36 21.12 315.60 21.12C311.12 21.12 306.96 24.68 306.96 30.24ZM315.56 37.20C312.28 37.20 310.08 34.20 310.08 30.04C310.08 24.68 313.24 23 315.32 23C318.36 23 321.24 26.12 321.24 30.40C321.24 33.96 318.96 37.20 315.56 37.20ZM334.80 37.32C333.88 37.32 332.96 37.08 332.16 36.68C331.12 36.20 331.12 35.80 331.12 35.44L331.12 26.84C331.12 25.68 331.40 25 332.28 24.36C333.32 23.56 334.40 23.52 334.92 23.52C338.12 23.52 341.12 26.72 341.12 30.60C341.12 34.60 338.04 37.32 334.80 37.32ZM336.24 21.16C335.92 21.16 335.64 21.16 335.32 21.20C332.20 21.64 330.92 23.80 330.72 23.80C330.64 23.80 330.60 23.68 330.60 23.56L330.60 21.20C330.60 20.96 330.52 20.76 330.28 20.76C330.08 20.76 330.00 20.88 329.60 21.08C325.40 23.56 325.32 23.52 325.32 23.76L325.32 23.80C325.32 24.08 325.40 24.04 328.00 25.20C328.48 25.40 328.52 25.80 328.52 26L328.52 26.08L328.52 44.56C328.52 45.24 328.28 45.56 327.64 45.68C325.80 46.08 325.32 46 325.32 46.72C325.32 47.40 325.72 47.52 325.96 47.52C326.16 47.52 328.36 47.20 331.28 47.20C333.52 47.20 334.68 47.36 335.04 47.36C335.40 47.36 335.52 47.08 335.52 46.76C335.52 45.52 334.72 45.76 332.32 45.52C331.48 45.44 331.44 44.88 331.44 44.48L331.44 44.36L331.44 38.88C331.44 38.60 331.48 38.44 331.72 38.44C331.80 38.44 332.92 38.68 334.28 38.68C339.84 38.68 343.80 35.12 343.80 29.80C343.80 25.16 340.68 21.16 336.24 21.16ZM353.68 37.84C353.68 37.32 353.48 37.12 353.00 37.04C351.40 36.76 350.96 36.84 350.96 35.56L350.96 10.24C350.96 9.88 350.88 9.48 350.40 9.48C350.20 9.48 350.04 9.56 349.92 9.64C345.08 12.16 345.00 12.08 345.00 12.40L345.00 12.44C345.00 12.88 345.52 13.04 347.12 14.00C347.80 14.40 348.04 14.40 348.04 15.00L348.04 35.36C348.04 36.16 347.96 36.76 346.92 36.88C345.56 37.04 345.28 37 345.28 37.76L345.28 37.88C345.28 38.16 345.32 38.60 345.84 38.60C345.96 38.60 347.52 38.40 349.44 38.40C351.44 38.40 353.08 38.64 353.20 38.64C353.60 38.64 353.68 38.32 353.68 37.84ZM355.00 30.16C355.00 37 359.44 39.16 362.72 39.16C365.56 39.16 368.16 37.72 369.80 35.60C370.00 35.36 370.08 35.12 370.08 34.96C370.08 34.60 369.80 34.36 369.44 34.36C369.04 34.36 368.72 34.72 368.52 34.92C367.28 36.12 365.52 36.88 363.76 36.88C358.72 36.88 357.84 31.56 357.84 31.08C357.84 30.72 358.08 30.76 366.36 27.92C367.52 27.52 369.60 27.12 369.60 25.92L369.60 25.88C369.60 25.52 369.44 25.20 369.28 25C367.80 22.96 365.16 21.16 362.40 21.16C358.40 21.16 355.00 24.56 355.00 30.16ZM365.72 26C365.72 26.16 365.60 26.36 365.36 26.48C365.28 26.52 358.00 29.36 357.88 29.36C357.80 29.36 357.68 29.32 357.68 29.08C357.68 25.52 359.20 23.36 361.52 23.36C363.76 23.36 365.72 25.52 365.72 26ZM409.88 21.80C409.56 21.80 408.60 21.96 406.68 21.96C404.80 21.96 403.84 21.80 403.56 21.80C403.12 21.80 403.08 22.16 403.08 22.48C403.08 23.12 403.40 23.24 403.80 23.28C405.52 23.40 406.24 23.28 406.24 24.24C406.24 24.68 405.24 29.56 402.36 34.64C402.32 34.76 402.20 35 401.88 35C401.64 35 401.44 34.80 401.24 34.44C398.64 30.32 396.24 24.96 396.24 24.20C396.24 23.56 396.76 23.40 397.16 23.36C399.40 23.16 399.48 23.28 399.48 22.64L399.48 22.40C399.48 22.12 399.36 21.80 398.92 21.80C398.52 21.80 397.28 21.92 394.80 21.92C392.32 21.92 391.08 21.80 390.68 21.80C390.16 21.80 390.04 22.16 390.04 22.72C390.04 24 392.04 22.76 393.04 24.32C393.20 24.56 394.56 27.36 394.56 27.68L394.56 27.72C394.52 28.32 392.48 32.32 390.92 34.72C390.92 34.76 390.76 35.04 390.52 35.04C390.28 35.04 390.16 34.80 390.12 34.72C388.48 31.52 386.96 28.16 385.64 24.68C385.52 24.44 385.40 24.12 385.40 23.92C385.40 22.72 387.88 23.96 387.88 22.48C387.88 22 387.68 21.80 387.40 21.80C387.12 21.80 386.24 21.92 384.52 21.92L384.40 21.92C382.64 21.92 381.72 21.80 381.44 21.80C380.84 21.80 380.72 22.12 380.72 22.48C380.72 23.80 381.84 22.80 382.48 23.92C382.76 24.40 384.80 30.24 389.08 38.36C389.44 39.04 389.76 39.40 390.24 39.40C390.56 39.40 390.80 39.24 390.96 39.04C391.28 38.68 391.28 38.56 393.96 33.16C395.44 30 395.44 30 395.56 30C395.72 30 395.68 30.04 398.20 34.92C400.08 38.40 400.52 39.40 401.28 39.40C401.72 39.40 402.00 39.16 402.40 38.40C408.84 26.40 407.52 23.72 409.24 23.36C409.60 23.32 410.48 23.52 410.48 22.48C410.48 22.08 410.28 21.80 409.88 21.80ZM411.72 24.60C411.72 25.52 412.56 26.04 413.32 26.04C413.84 26.04 414.08 25.76 414.20 25.60C414.28 25.44 415.36 22.92 417.64 22.92C418.68 22.92 419.48 23.48 419.96 24C420.76 24.92 420.92 25.92 420.92 27.20L420.92 28.64C420.92 28.92 420.88 29.12 420.60 29.20C420.52 29.24 415.72 29.40 413.56 31.12C412.60 31.88 411.88 33.16 411.88 34.68L411.88 34.72C411.88 37.16 413.68 39.20 416.44 39.20C417.92 39.20 419.24 38.68 420.16 38.08C421.16 37.40 421.04 37.20 421.24 37.20C421.28 37.20 421.28 37.24 421.32 37.24C421.40 37.28 422.36 38.88 424.16 38.88C426.24 38.88 427.24 36.64 427.24 35.72C427.24 35.36 427.04 35.20 426.88 35.20C426.28 35.20 426.36 36.52 425.12 36.52C424.72 36.52 423.76 36.32 423.76 34.76L423.76 26.88C423.76 26.40 423.72 25.92 423.68 25.44C423.28 21.52 419.40 21.04 417.88 21.04C414.56 21.04 411.72 23.16 411.72 24.60ZM417.40 37C416.88 37 416.16 36.92 415.68 36.48C415.04 35.92 414.84 34.92 414.84 34.28C414.84 33.28 415.28 32.56 415.80 32.12C417.12 30.88 419.84 30.68 420.56 30.68C420.92 30.68 420.96 30.88 420.96 31.84L420.96 33.48L420.96 34.44C420.96 34.80 420.92 35.08 420.72 35.36C420.52 35.64 419.36 37 417.40 37ZM433.12 23.32C433.12 23.28 433.16 23.16 433.16 23.08L433.16 21.52C433.16 21.20 433.04 20.92 432.68 20.92C432.52 20.92 432.40 21.00 432.28 21.08C428.56 23.08 428.48 23.04 428.48 23.36L428.48 23.40C428.48 23.56 428.60 23.68 428.72 23.80C430.52 25.16 430.52 25.08 430.52 26.04L430.52 35.60C430.52 36.28 430.48 36.80 429.48 36.96C428.24 37.16 427.92 37.12 427.92 37.92C427.92 38.48 428.32 38.64 428.56 38.64C428.68 38.64 430.16 38.40 432.08 38.40C434.04 38.40 435.68 38.68 435.80 38.68C436.16 38.68 436.32 38.36 436.32 37.96C436.32 37.08 435.84 37.16 434.16 36.88C433.32 36.76 433.28 36.20 433.28 35.76L433.28 35.64L433.28 26.16C433.28 26 433.28 25.80 433.32 25.64C433.48 24.92 435.12 23.04 437.44 23.04C438.36 23.04 440.56 23.40 441.44 25.44C441.92 26.64 441.96 29.04 441.96 29.76L441.96 35.96C441.96 36.64 441.84 36.84 441.32 36.92C439.72 37.20 439.24 37.12 439.24 37.84C439.24 38.24 439.32 38.64 439.80 38.64C439.88 38.64 441.32 38.40 443.08 38.40C445.08 38.40 446.08 38.64 446.44 38.64C446.68 38.64 447.04 38.52 447.04 37.84C447.04 37.56 447.00 37.20 446.48 37.12C445.08 36.92 444.56 37 444.56 35.88L444.56 35.80C444.56 30.28 444.60 29.56 444.60 28.88C444.60 28.20 444.60 27.52 444.52 26.84C444.12 21.88 440.64 21.08 438.84 21.08L438.76 21.08C435.32 21.12 433.44 23.48 433.28 23.48L433.24 23.48C433.20 23.48 433.12 23.44 433.12 23.32ZM449.04 23.80L450.32 23.80C450.56 23.80 450.60 23.96 450.60 24.16C450.60 25.04 450.44 31.24 450.44 33C450.44 33.44 450.44 33.84 450.48 34.28C450.76 38.04 452.92 39.16 454.52 39.16C456.72 39.16 458.68 37.16 460.08 35.56C460.16 35.44 460.36 35.20 460.36 34.88C460.36 34.52 460.08 34.16 459.64 34.16C458.76 34.16 457.20 36.56 455.28 36.56C453.60 36.56 453.24 35 453.24 33.60C453.24 32.64 453.24 31.72 453.28 24.24C453.28 23.96 453.40 23.88 453.68 23.88L458.36 23.88C458.72 23.88 458.92 23.84 459.08 23.68C459.28 23.44 459.44 22.76 459.44 22.52C459.44 21.76 458.76 21.76 458.40 21.76C458.28 21.76 458.20 21.72 458.08 21.72L454.48 21.72C454.00 21.72 453.68 21.60 453.68 20.92C453.68 20.36 453.72 18.68 453.72 18.12C453.72 17.60 453.44 17.48 453.20 17.48C452.76 17.48 452.52 18.00 452.40 18.20C450.24 21.88 448.24 22.60 448.24 23.28C448.24 23.76 448.68 23.80 449.04 23.80Z"/></svg>